<?xml version="1.0" encoding="UTF-8"?>
<svg width="600" height="400" viewBox="0 0 600 400" fill="none" xmlns="http://www.w3.org/2000/svg">
  <!-- Background -->
  <rect width="600" height="400" fill="#F3F4F6"/>
  
  <!-- Parking lot lines -->
  <path d="M50 100 H550" stroke="#CBD5E1" stroke-width="4"/>
  <path d="M50 200 H550" stroke="#CBD5E1" stroke-width="4"/>
  <path d="M50 300 H550" stroke="#CBD5E1" stroke-width="4"/>
  
  <!-- Parking spaces -->
  <path d="M100 100 V300" stroke="#CBD5E1" stroke-width="2"/>
  <path d="M200 100 V300" stroke="#CBD5E1" stroke-width="2"/>
  <path d="M300 100 V300" stroke="#CBD5E1" stroke-width="2"/>
  <path d="M400 100 V300" stroke="#CBD5E1" stroke-width="2"/>
  <path d="M500 100 V300" stroke="#CBD5E1" stroke-width="2"/>
  
  <!-- Car shapes -->
  <rect x="120" y="120" width="60" height="140" rx="10" fill="#60A5FA"/>
  <rect x="320" y="220" width="60" height="140" rx="10" fill="#3B82F6"/>
  <rect x="420" y="120" width="60" height="140" rx="10" fill="#2563EB"/>
  
  <!-- P symbol -->
  <path d="M250 50 h40 a30 30 0 0 1 0 60 h-40 v-60" stroke="#1D4ED8" stroke-width="8" fill="none"/>
  
  <!-- Decorative elements -->
  <circle cx="150" cy="350" r="10" fill="#93C5FD"/>
  <circle cx="450" cy="50" r="15" fill="#BFDBFE"/>
  <circle cx="550" cy="250" r="12" fill="#93C5FD"/>
</svg> 